<?xml version="1.0" encoding="UTF-8" standalone="no"?>
<!-- Generator: Adobe Illustrator 13.0.1, SVG Export Plug-In . SVG Version: 6.00 Build 14948)  -->
<svg
   xmlns:dc="http://purl.org/dc/elements/1.1/"
   xmlns:cc="http://web.resource.org/cc/"
   xmlns:rdf="http://www.w3.org/1999/02/22-rdf-syntax-ns#"
   xmlns:svg="http://www.w3.org/2000/svg"
   xmlns="http://www.w3.org/2000/svg"
   xmlns:sodipodi="http://sodipodi.sourceforge.net/DTD/sodipodi-0.dtd"
   xmlns:inkscape="http://www.inkscape.org/namespaces/inkscape"
   version="1.0"
   id="Layer_1"
   x="0px"
   y="0px"
   width="720"
   height="720"
   viewBox="0 0 719.984 719.984"
   enable-background="new 0 0 719.984 719.984"
   xml:space="preserve"
   sodipodi:version="0.32"
   inkscape:version="0.45.1"
   sodipodi:docname="IRSSeal.svg"
   inkscape:output_extension="org.inkscape.output.svg.inkscape"><metadata
   id="metadata242"><rdf:RDF><cc:Work
       rdf:about=""><dc:format>image/svg+xml</dc:format><dc:type
         rdf:resource="http://purl.org/dc/dcmitype/StillImage" /></cc:Work></rdf:RDF></metadata><defs
   id="defs240" /><sodipodi:namedview
   inkscape:window-height="581"
   inkscape:window-width="697"
   inkscape:pageshadow="2"
   inkscape:pageopacity="0.0"
   guidetolerance="10.0"
   gridtolerance="10.0"
   objecttolerance="10.0"
   borderopacity="1.0"
   bordercolor="#666666"
   pagecolor="#ffffff"
   id="base"
   width="720px"
   height="720px"
   inkscape:showpageshadow="false"
   inkscape:zoom="0.52501166"
   inkscape:cx="267.71578"
   inkscape:cy="355.39349"
   inkscape:window-x="282"
   inkscape:window-y="22"
   inkscape:current-layer="Layer_1" />
<path
   d="M 360,1.57 C 557.945,1.57 718.414,162.039 718.414,359.984 C 718.414,557.945 557.945,718.414 360,718.414 C 162.055,718.414 1.57,557.945 1.57,359.984 C 1.57,162.039 162.055,1.57 360,1.57"
   id="path3"
   style="fill:#ffffff" />
<path
   d="M 360,1.57 C 557.945,1.57 718.414,162.039 718.414,359.984 C 718.414,557.945 557.945,718.414 360,718.414 C 162.055,718.414 1.57,557.945 1.57,359.984 C 1.57,162.039 162.055,1.57 360,1.57 z "
   id="path5"
   style="fill:#004a73;stroke:#ffffff;stroke-width:3.14059997;stroke-opacity:1;fill-opacity:1" />
<path
   d="M 360,706.758 C 551.5,706.758 706.766,551.508 706.766,359.985 C 706.766,168.477 551.5,13.219 360,13.219 C 168.477,13.219 13.234,168.477 13.234,359.985 C 13.234,551.508 168.477,706.758 360,706.758"
   id="path7"
   style="fill:#ffffff" />
<path
   d="M 360,706.758 C 551.5,706.758 706.766,551.508 706.766,359.985 C 706.766,168.477 551.5,13.219 360,13.219 C 168.477,13.219 13.234,168.477 13.234,359.985 C 13.234,551.508 168.477,706.758 360,706.758 z "
   id="path9"
   style="fill:#004a73;stroke:#ffffff;stroke-width:3.11139989;fill-opacity:1;stroke-opacity:1" />
<path
   d="M 360,625.805 C 506.797,625.805 625.812,506.782 625.812,359.985 C 625.812,213.203 506.797,94.18 360,94.18 C 213.195,94.18 94.172,213.203 94.172,359.985 C 94.172,506.781 213.195,625.805 360,625.805"
   id="path11"
   style="fill:#004a73;fill-opacity:1" />
<path
   d="M 542.562,403.086 C 558.554,470.008 533.304,493.578 522.359,509.563 M 175.148,416.141 C 175.148,416.141 161.265,466.641 201.664,507.039"
   id="path235"
   style="fill:#0884c6;stroke:#efce5a;stroke-width:3.3059001;stroke-opacity:1;fill-opacity:1" /><path
   d="M 360,625.805 C 506.797,625.805 625.812,506.782 625.812,359.985 C 625.812,213.203 506.797,94.18 360,94.18 C 213.195,94.18 94.172,213.203 94.172,359.985 C 94.172,506.781 213.195,625.805 360,625.805 z "
   id="path13"
   style="fill:none;stroke:#ffffff;stroke-width:3.14059997" />
<path
   d="M 170.359,429.195 L 182.82,274.968 C 182.609,222.609 161.64,208.78 161.64,208.78 L 240.179,161.452 C 314.765,204.444 360.132,148.077 360.132,148.077 C 426.187,211.335 480.952,162.655 480.952,162.655 L 562.811,209.397 C 540.514,226.538 540.694,258.702 540.694,258.702 L 547.436,426.772 L 360.766,290.883 L 170.359,429.195"
   id="path15"
   style="fill:#efce5a;fill-opacity:1;stroke:none;stroke-opacity:1" />
<path
   d="M 170.359,429.195 L 182.82,274.968 C 182.609,222.609 161.64,208.78 161.64,208.78 L 240.179,161.452 C 314.765,204.444 360.132,148.077 360.132,148.077 C 426.187,211.335 480.952,162.655 480.952,162.655 L 562.811,209.397 C 540.514,226.538 540.694,258.702 540.694,258.702 L 547.436,426.772 L 360.766,290.883 L 170.359,429.195 z "
   id="path17"
   style="fill:none;stroke:none;stroke-width:3.14059997" />
<path
   d="M 360.859,609.617 C 360.859,609.617 381.461,580.133 446.601,564.633 C 446.601,564.633 491.539,563.11 531.163,501.422 L 360,380.25 L 191.828,499.594 C 233.867,561.61 278.992,562.883 278.992,562.883 C 348.094,586.531 360.859,609.617 360.859,609.617"
   id="path19"
   style="fill:#efce5a;fill-opacity:1" />
<path
   d="M 360.859,609.617 C 360.859,609.617 381.461,580.133 446.601,564.633 C 446.601,564.633 491.539,563.11 531.163,501.422 L 360,380.25 L 191.828,499.594 C 233.867,561.61 278.992,562.883 278.992,562.883 C 348.094,586.531 360.859,609.617 360.859,609.617 z "
   id="path21"
   style="fill:none;stroke:none;stroke-width:3.14059997" />
<path
   d="M 432.859,510.602 C 434.257,528.18 440.242,541.758 456.554,541.852 C 476.226,541.977 479.374,522.5 479.374,500.422 C 479.374,478.336 475.515,461.922 456.382,461.969 C 438.405,462.024 433.655,474.969 432.843,493.399 L 432.687,493.227 C 432.687,493.227 426.195,494.266 424.781,489 C 424.781,489 423.383,493.578 417.414,493.398 L 230.148,493.578 C 218.664,502.883 230.25,510.25 230.25,510.25 L 239.383,510.25 L 239.383,536.586 L 260.453,536.586 L 260.453,515.516 L 252.023,515.516 L 252.195,520.43 L 247.461,520.43 L 247.461,510.602 L 277.156,510.602 L 277.101,520.43 L 272.742,520.43 L 272.562,515.492 L 264.14,515.453 L 264.038,536.523 L 285.21,536.757 L 285.21,510.78 L 418.983,510.6 C 423.561,510.78 425.303,516.038 425.303,516.038 C 426.539,509.898 432.859,510.602 432.859,510.602"
   id="path23"
   style="fill:#0884c6;fill-opacity:1" />
<path
   d="M 293.898,514.352 C 300.687,514.352 306.179,508.618 306.179,501.555 C 306.179,494.5 300.687,488.774 293.898,488.774 C 287.109,488.774 281.609,494.501 281.609,501.555 C 281.609,508.617 287.109,514.352 293.898,514.352"
   id="path25"
   style="fill:#0884c6;fill-opacity:1" />
<line
   x1="241.672"
   y1="511.133"
   x2="241.672"
   y2="534.65601"
   id="line27"
   style="fill:#292526" />
<path
   d="M 231.141,496.383 L 279.414,496.383 M 277.828,526.57 L 281.695,526.57 L 281.695,513.945 M 250.445,526.57 L 255.179,526.57 L 255.179,523.758 M 241.672,511.133 L 241.672,534.656"
   id="path29"
   style="fill:none;stroke:#ffffff;stroke-width:1.57519996" />
<path
   d="M 285.734,499.008 C 286.781,493.578 292.226,491.813 292.226,491.813 C 284.156,490.938 285.734,499.008 285.734,499.008"
   id="path31"
   style="fill:#ffffff" />
<line
   x1="308.02301"
   y1="496.55499"
   x2="412.492"
   y2="496.55499"
   id="line33"
   style="fill:none;stroke:#ffffff;stroke-width:1.57519996" />
<path
   d="M 421.977,494.797 C 424.079,494.969 425.133,492.352 425.133,492.352 C 423.031,492.695 421.977,494.797 421.977,494.797"
   id="path35"
   style="fill:#ffffff" />
<path
   d="M 471.656,507.609 C 475.875,515.867 471.656,527.632 471.656,527.632 M 472.016,479 C 475.352,486.016 470.782,496.555 470.782,496.555 M 446.727,466.883 C 440.055,471.453 436.727,480.938 436.024,492.695 C 435.321,504.461 436.032,513.828 438.305,522.187 C 441.11,532.554 448.493,537.109 448.493,537.109"
   id="path37"
   style="fill:none;stroke:#ffffff;stroke-width:1.57519996" />
<path
   d="M 462.758,501.32 C 466.57,504.023 469.305,509.281 469.664,515.578 C 470.203,525.242 464.937,533.687 457.906,534.422 C 450.875,535.164 444.734,527.945 444.187,518.289 C 443.82,511.625 446.203,505.539 450.023,502.172 L 450.671,501.531 C 446.89,498.781 444.194,493.461 443.905,487.156 C 443.452,477.492 448.78,469.133 455.819,468.515 C 462.858,467.874 468.936,475.203 469.389,484.874 C 469.709,491.546 467.272,497.593 463.42,500.897 L 462.758,501.32"
   id="path39"
   style="fill:#efce5a;fill-opacity:1" />
<path
   d="M 462.758,501.32 C 466.57,504.023 469.305,509.281 469.664,515.578 C 470.203,525.242 464.937,533.687 457.906,534.422 C 450.875,535.164 444.734,527.945 444.187,518.289 C 443.82,511.625 446.203,505.539 450.023,502.172 L 450.671,501.531 C 446.89,498.781 444.194,493.461 443.905,487.156 C 443.452,477.492 448.78,469.133 455.819,468.515 C 462.858,467.874 468.936,475.203 469.389,484.874 C 469.709,491.546 467.272,497.593 463.42,500.897 L 462.758,501.32 z "
   id="path41"
   style="fill:none;stroke:#0884c6;stroke-width:1.57519996;stroke-opacity:1" />
<path
   d="M 370.711,261.281 L 369.164,232.14 L 452.883,232.14 C 456.633,246.679 471.656,250.062 471.656,250.062 L 482.898,249.882 C 501.976,240.194 503.257,223.187 503.257,223.187 L 493.195,220.976 C 477.828,244.492 462.265,221.578 462.265,221.578 L 378.413,202.742 L 367.608,214.648 L 360.46,175.617 L 352.03,214.679 L 338.577,202.726 L 254.186,220.492 C 254.186,220.492 238.436,243.281 223.272,219.64 L 213.178,221.773 C 213.178,221.773 214.334,238.781 233.326,248.617 L 244.56,248.883 C 244.56,248.883 259.38,246.649 263.255,232.141 L 349.161,231.821 L 349.286,231.798 L 348.028,261.4 C 351.051,271.822 359.466,270.767 359.466,270.767 C 369.648,271.82 370.711,261.281 370.711,261.281"
   id="path43"
   style="fill:#0884c6;fill-opacity:1" />
<path
   d="M 241.141,235.656 C 252.024,234.258 256.243,224.422 256.243,224.422 L 337,205.805 L 339.812,208.977"
   id="path45"
   style="fill:none;stroke:#ffffff;stroke-width:1.57519996" />
<polyline
   points="216.562,223.727 219.023,230.734 218.664,223.016 216.562,223.727 "
   id="polyline47"
   style="fill:#292526" />
<polygon
   points="216.562,223.727 219.023,230.734 218.664,223.016 216.562,223.727 "
   id="polygon49"
   style="fill:none;stroke:#ffffff;stroke-width:1.57519996" />
<path
   d="M 476.227,233.555 C 487.993,236.367 495.008,223.188 495.008,223.188 L 500.633,224.422 C 492.203,240.578 476.227,233.555 476.227,233.555"
   id="path51"
   style="fill:#ffffff" />
<path
   d="M 371.539,214.586 L 378.867,206 L 388.078,208.578 M 353.148,232.5 L 352.453,259.539 C 352.101,265.156 358.422,266.555 358.422,266.555"
   id="path53"
   style="fill:none;stroke:#ffffff;stroke-width:1.57519996" />
<path
   d="M 482.727,258.141 L 518.844,323.25 C 518.844,323.25 484.656,381.789 438.774,325.648 L 473.594,258.484 L 482.727,258.141"
   id="path55"
   style="fill:#0884c6;fill-opacity:1" />
<path
   d="M 453.93,334.68 C 448.492,331.524 446.555,326.602 446.555,326.602 L 495.36,326.782 C 493.61,335.212 484.469,341.344 484.469,341.344 C 490.617,334.5 490.453,328.188 490.453,328.188 L 453.047,328.188 C 451.469,330.297 453.93,334.68 453.93,334.68"
   id="path57"
   style="fill:#ffffff" />
<path
   d="M 453.93,334.68 C 448.492,331.524 446.555,326.602 446.555,326.602 L 495.36,326.782 C 493.61,335.212 484.469,341.344 484.469,341.344 C 490.617,334.5 490.453,328.188 490.453,328.188 L 453.047,328.188 C 451.469,330.297 453.93,334.68 453.93,334.68 z "
   id="path59"
   style="fill:none;stroke:#ffffff;stroke-width:2.13910007" />
<path
   style="fill:#0884c6;fill-opacity:1;stroke:#0884c6;stroke-opacity:1"
   d="M 360.76099,290.87453 L 539.19453,420.7779 L 524.75735,496.86996 L 360.01101,380.24755 L 198.17085,495.08875 L 177.45256,424.02783 L 360.76099,290.87453 z "
   id="path3388" /><path
   d="M 234.164,256.172 L 197.516,321.008 C 197.516,321.008 231.235,379.805 277.563,324.047 L 243.282,256.602 L 234.164,256.172"
   id="path61"
   style="fill:#0884c6;fill-opacity:1" />
<polyline
   points="239.555,255.094 239.383,321.68 273.312,321.445 239.555,255.094 "
   id="polyline63"
   style="fill:#efce5a;fill-opacity:1" />
<polygon
   points="239.555,255.094 239.383,321.68 273.312,321.445 239.555,255.094 "
   id="polygon65"
   style="fill:none;stroke:#0884c6;stroke-width:1.57519996;stroke-opacity:1" />
<polyline
   points="236.172,257.859 236.219,321.344 200.398,321.344 236.172,257.859 "
   id="polyline67"
   style="fill:#efce5a;fill-opacity:1" />
<polygon
   points="236.172,257.859 236.219,321.344 200.398,321.344 236.172,257.859 "
   id="polygon69"
   style="fill:none;stroke:#0884c6;stroke-width:1.57519996;stroke-opacity:1" />
<path
   d="M 226.039,328.891 C 220.601,327.258 218.664,324.735 218.664,324.735 L 267.469,324.829 C 265.719,329.165 256.594,332.329 256.594,332.329 C 262.735,328.806 262.563,325.548 262.563,325.548 L 225.165,325.548 C 223.578,326.633 226.039,328.891 226.039,328.891"
   id="path71"
   style="fill:#ffffff" />
<path
   d="M 226.039,328.891 C 220.601,327.258 218.664,324.735 218.664,324.735 L 267.469,324.829 C 265.719,329.165 256.594,332.329 256.594,332.329 C 262.735,328.806 262.563,325.548 262.563,325.548 L 225.165,325.548 C 223.578,326.633 226.039,328.891 226.039,328.891 z "
   id="path73"
   style="fill:none;stroke:#ffffff;stroke-width:2.13910007" />
<polyline
   points="476.93,259.367 476.711,323.086 443.047,323.086 476.93,259.367 "
   id="polyline75"
   style="fill:#efce5a;fill-opacity:1" />
<polygon
   points="476.93,259.367 476.711,323.086 443.047,323.086 476.93,259.367 "
   id="polygon77"
   style="fill:none;stroke:#0884c6;stroke-width:1.57519996;stroke-opacity:1" />
<polyline
   points="479.914,259.016 480.141,322.906 515.547,322.906 479.914,259.016 "
   id="polyline79"
   style="fill:#efce5a;fill-opacity:1" />
<polygon
   points="479.914,259.016 480.141,322.906 515.547,322.906 479.914,259.016 "
   id="polygon81"
   style="fill:none;stroke:#0884c6;stroke-width:1.57519996;stroke-opacity:1" />
<path
   d="M 238.508,260.086 C 242.141,260.086 245.078,257.094 245.078,253.391 C 245.078,249.688 242.14,246.68 238.508,246.68 C 234.867,246.68 231.922,249.688 231.922,253.391 C 231.922,257.094 234.867,260.086 238.508,260.086"
   id="path83"
   style="fill:#0884c6;fill-opacity:1" />
<path
   d="M 238.594,258.148 C 241.063,258.148 243.055,255.976 243.055,253.304 C 243.055,250.632 241.063,248.468 238.594,248.468 C 236.141,248.468 234.117,250.648 234.117,253.304 C 234.117,255.977 236.125,258.148 238.594,258.148"
   id="path85"
   style="fill:#ffffff" />
<path
   d="M 238.594,258.148 C 241.063,258.148 243.055,255.976 243.055,253.304 C 243.055,250.632 241.063,248.468 238.594,248.468 C 236.141,248.468 234.117,250.648 234.117,253.304 C 234.117,255.977 236.125,258.148 238.594,258.148 z "
   id="path87"
   style="fill:none;stroke:#0884c6;stroke-width:0.31110001;stroke-opacity:1" />
<path
   d="M 477.891,261.5 C 481.532,261.5 484.469,258.492 484.469,254.789 C 484.469,251.086 481.531,248.094 477.891,248.094 C 474.266,248.094 471.313,251.086 471.313,254.789 C 471.313,258.492 474.266,261.5 477.891,261.5"
   id="path89"
   style="fill:#0884c6;fill-opacity:1" />
<path
   d="M 477.977,259.547 C 480.446,259.547 482.454,257.391 482.454,254.711 C 482.454,252.047 480.446,249.867 477.977,249.867 C 475.508,249.867 473.516,252.047 473.516,254.711 C 473.516,257.391 475.508,259.547 477.977,259.547"
   id="path91"
   style="fill:#ffffff" />
<path
   d="M 477.977,259.547 C 480.446,259.547 482.454,257.391 482.454,254.711 C 482.454,252.047 480.446,249.867 477.977,249.867 C 475.508,249.867 473.516,252.047 473.516,254.711 C 473.516,257.391 475.508,259.547 477.977,259.547 z "
   id="path93"
   style="fill:none;stroke:#0884c6;stroke-width:0.31110001;stroke-opacity:1" />
<path
   d="M 238.727,110.336 L 220.852,119.711 L 220.235,118.539 C 225.68,115.383 225.126,113.875 222.751,109.344 L 206.704,78.719 L 203.399,80.446 C 196.657,83.985 195.61,86.008 197.758,93.399 L 196.297,94.165 L 191.203,83.563 L 225.75,65.454 L 231.578,75.681 L 230.109,76.447 C 225.281,70.385 222.984,70.181 216.25,73.705 L 212.945,75.447 L 229.351,106.744 C 231.539,110.908 232.874,111.689 238.117,109.174 L 238.727,110.336"
   id="path95"
   style="fill:#ffffff;fill-opacity:1" />
<path
   d="M 328.93,84.234 L 292.133,90.57 L 291.906,89.273 C 296.226,88.25 297.679,87.367 296.781,82.117 L 291.562,51.859 C 290.64,46.468 288.929,46.359 284.578,46.75 L 284.359,45.453 L 320.547,39.219 L 322.438,48.93 L 320.727,49.227 C 318.665,43.329 316.704,42.547 309.141,43.86 L 299.938,45.438 C 298.508,45.688 297.688,45.829 298.086,48.141 L 300.695,63.282 L 311.187,61.47 C 317.257,60.423 317.656,58.665 317.57,53.697 L 319.14,53.424 L 321.859,69.244 L 320.289,69.51 C 318.539,64.205 317.351,63.424 311.68,64.338 L 301.164,65.994 L 304.07,82.9 C 304.554,85.697 304.562,85.767 314.718,84.017 C 323.234,82.548 326.296,79.923 328.101,72.517 L 330.023,72.197 L 328.93,84.234"
   id="path97"
   style="fill:#ffffff;fill-opacity:1" />
<path
   d="M 414.133,55.633 L 412.43,55.399 C 412.008,49.626 408.446,42.876 401.25,41.915 C 397.836,41.446 394.047,43.11 393.477,47.353 C 392.102,57.642 414.805,62.087 412.922,76.119 C 412.141,81.947 406.602,87.9 396.797,86.588 C 391.602,85.893 388.547,83.119 386.492,82.838 C 385.054,82.643 384.203,83.713 384.062,84.815 L 382.554,84.604 L 382.452,69.807 L 384.022,70.01 C 384.897,73.424 387.194,82.791 396.436,84.041 C 401.936,84.768 405.186,81.229 405.686,77.525 C 406.209,73.619 405.42,71.142 396.147,63.9 C 390.28,59.4 386.061,57.916 387.249,49.025 C 388.296,41.22 395.046,38.22 401.218,39.048 C 405.327,39.595 408.718,42.415 410.429,42.657 C 412.351,42.915 412.913,41.384 413.14,40.641 L 414.578,40.829 L 414.133,55.633"
   id="path99"
   style="fill:#ffffff;fill-opacity:1" />
<path
   d="M 468.148,56.32 C 462.867,55.453 461.46,56.156 459.554,63.156 L 454.82,80.57 C 453.367,85.922 449.953,98.461 432.679,93.765 C 416.132,89.273 419.656,76.257 420.749,72.249 L 426.405,51.429 C 427.749,46.491 427.007,45.499 422.03,43.796 L 422.382,42.523 L 441.265,47.656 L 440.921,48.922 C 435.538,47.899 434.499,48.539 433.21,53.281 L 427.405,74.64 C 426.249,78.906 423.733,88.187 435.343,91.335 C 440.538,92.749 444.937,91.647 447.718,89.038 C 448.991,87.804 450.257,85.78 451.726,80.382 L 456.617,62.359 C 458.562,55.226 457.265,53.648 452.664,52.109 L 453.008,50.851 L 468.485,55.054 L 468.148,56.32"
   id="path101"
   style="fill:#ffffff;fill-opacity:1" />
<path
   d="M 550.141,99.258 C 547.875,98.196 545.797,97.227 537.883,100.953 L 520.969,108.875 L 513.93,120.289 C 511.313,124.531 511.461,125.992 516.719,129.328 L 516.031,130.437 L 498.023,119.335 L 498.718,118.218 C 504.546,121.663 505.562,120.421 508.32,115.945 L 514.64,105.695 L 513.906,89.656 C 513.351,77.125 512.57,76.398 510.078,74.531 L 510.766,73.422 L 527.235,83.578 L 526.547,84.687 C 523.774,83.148 522.258,82.296 521.25,83.953 C 520.852,84.586 520.633,86 520.68,87.086 L 521.336,105.531 L 537.945,97.422 C 538.765,97.024 539.609,96.578 540.117,95.75 C 541.25,93.93 539.078,92.438 537.258,91.312 L 537.946,90.187 L 550.837,98.132 L 550.141,99.258"
   id="path103"
   style="fill:#ffffff;fill-opacity:1" />

<path
   id="path105"
   style="fill:#ffffff;fill-opacity:1"
   d="M 289.18,91.125 L 278.664,94.781 L 256.133,80.054 L 252.516,81.46 L 256.977,94.327 C 258.508,98.702 259.586,99.718 264.907,98.171 L 265.329,99.405 L 247.251,105.694 L 246.813,104.452 C 251.993,102.28 251.766,100.819 250.071,95.921 L 240.259,67.64 C 238.571,62.804 237.384,62.554 232.657,63.687 L 232.227,62.453 L 250.25,56.187 C 256.078,54.164 267.328,51.796 270.812,61.851 C 273.859,70.609 265.906,75.124 262.804,76.929 L 282,88.805 C 284.047,90.063 286.023,90.68 288.742,89.883 L 289.18,91.125M 251.383,78.156 C 256.352,76.375 265.227,73.164 262.266,64.656 C 259.532,56.758 251.68,59.281 249.25,60.125 C 246.086,61.219 245.695,61.813 246.289,63.531 L 251.383,78.156" />

<path
   id="path109"
   style="fill:#ffffff;fill-opacity:1"
   d="M 379.18,82.805 L 361.547,83.047 L 361.531,81.735 C 364.093,81.704 366.367,81.594 366.336,79.04 C 366.32,77.931 365.383,75.665 364.953,74.704 L 362.031,68.11 L 343.914,68.36 L 340.852,76.493 C 340.524,77.399 340.329,78.368 340.336,79.134 C 340.375,82.032 343.625,81.993 345.07,81.97 L 345.093,83.282 L 331.413,83.477 L 331.39,82.165 C 332.492,82.079 333.663,81.931 334.89,80.587 C 336.46,78.845 338.531,73.751 339.804,70.704 L 353.695,36.563 L 355.078,36.54 L 372.851,75.556 C 375.14,80.572 376.117,81.322 379.156,81.494 L 379.18,82.805M 360.703,64.602 L 353.164,47.391 L 346.172,64.797 L 360.703,64.602" />

<path
   id="path113"
   style="fill:#ffffff;fill-opacity:1"
   d="M 494.258,116.43 L 484.086,111.914 L 477.703,85.75 L 474.117,84.312 L 468.578,96.757 C 466.687,100.991 466.797,102.468 471.734,104.968 L 471.203,106.171 L 453.695,98.382 L 454.234,97.179 C 459.492,99.14 460.328,97.929 462.437,93.187 L 474.617,65.835 C 476.695,61.163 475.992,60.171 471.773,57.765 L 472.304,56.554 L 489.742,64.32 C 495.375,66.82 505.203,72.781 500.875,82.515 C 497.102,90.984 488.219,88.843 484.703,88.038 L 490.617,109.811 C 491.25,112.139 492.265,113.952 494.789,115.225 L 494.258,116.43M 475.578,81.062 C 480.43,83.148 489.109,86.867 492.758,78.648 C 496.172,71 488.711,67.476 486.344,66.429 C 483.305,65.062 482.61,65.234 481.867,66.913 L 475.578,81.062" />
<polyline
   points="191.594,465.711 193.977,456.344 185.805,451.18 195.453,450.562 197.82,441.188 201.406,450.172   211.047,449.539 203.617,455.711 207.188,464.68 199.023,459.539 191.594,465.711 "
   id="polyline117"
   style="fill:#ffffff" />
<polyline
   points="219.414,445.891 221.789,436.531 213.625,431.375 223.258,430.742 225.656,421.383   229.219,430.359 238.859,429.727 231.438,435.898 235.008,444.875 226.836,439.719 219.414,445.891 "
   id="polyline119"
   style="fill:#ffffff" />
<polyline
   points="249.055,425.664 251.438,416.305 243.266,411.141 252.914,410.523 255.297,401.156   258.867,410.133 268.508,409.492 261.078,415.664 264.648,424.648 256.492,419.484 249.055,425.664 "
   id="polyline121"
   style="fill:#ffffff" />
<polyline
   points="277.297,405.516 279.68,396.164 271.516,391.008 281.164,390.383 283.539,381.008 287.125,389.992   296.758,389.359 289.328,395.539 292.898,404.508 284.727,399.352 277.297,405.516 "
   id="polyline123"
   style="fill:#ffffff" />
<polyline
   points="304.148,385.484 306.531,376.117 298.375,370.961 308.008,370.336 310.391,360.969   313.969,369.945 323.602,369.32 316.172,375.484 319.742,384.469 311.586,379.312 304.148,385.484 "
   id="polyline125"
   style="fill:#ffffff" />
<polyline
   points="330.992,365.43 333.383,356.062 325.211,350.922 334.852,350.281 337.234,340.93 340.812,349.906   350.453,349.273 343.023,355.438 346.602,364.414 338.422,359.258 330.992,365.43 "
   id="polyline127"
   style="fill:#ffffff" />
<polyline
   points="356.539,346.883 358.914,337.523 350.75,332.367 360.391,331.727 362.766,322.375 366.344,331.336   375.984,330.719 368.555,336.891 372.125,345.859 363.961,340.703 356.539,346.883 "
   id="polyline129"
   style="fill:#ffffff" />
<polyline
   points="383.125,366.266 385.516,356.898 377.344,351.742 386.977,351.109 389.375,341.758   392.938,350.727 402.578,350.102 395.148,356.273 398.727,365.25 390.57,360.078 383.125,366.266 "
   id="polyline131"
   style="fill:#ffffff" />
<polyline
   points="411.133,385.547 413.516,376.188 405.344,371.031 414.984,370.406 417.367,361.039   420.945,370.023 430.578,369.375 423.148,375.562 426.727,384.531 418.562,379.375 411.133,385.547 "
   id="polyline133"
   style="fill:#ffffff" />
<polyline
   points="438,409.133 440.383,399.773 432.211,394.617 441.859,393.992 444.242,384.625 447.812,393.602   457.453,392.977 450.023,399.156 453.594,408.117 445.438,402.961 438,409.133 "
   id="polyline135"
   style="fill:#ffffff" />
<polyline
   points="466,428.43 468.383,419.07 460.219,413.914 469.852,413.281 472.242,403.914 475.805,412.891   485.445,412.266 478.016,418.43 481.594,427.406 473.43,422.25 466,428.43 "
   id="polyline137"
   style="fill:#ffffff" />
<polyline
   points="494,447.727 496.383,438.352 488.219,433.195 497.852,432.57 500.234,423.203 503.812,432.18   513.445,431.555 506.023,437.727 509.594,446.695 501.43,441.531 494,447.727 "
   id="polyline139"
   style="fill:#ffffff" />
<polyline
   points="520.625,466.227 523,456.875 514.836,451.711 524.477,451.094 526.852,441.734 530.438,450.695   540.07,450.07 532.641,456.25 536.219,465.227 528.047,460.055 520.625,466.227 "
   id="polyline141"
   style="fill:#ffffff" />
<g
   id="g143"
   style="fill:#ffffff;fill-opacity:1">
	<path
   d="M 81.324,292.499 L 77.292,314.231 L 74.626,313.736 L 75.355,309.808 C 75.511,308.966 75.457,308.325 75.192,307.88 C 74.929,307.436 74.472,307.152 73.822,307.032 L 40.996,300.942 C 40.23,300.8 39.649,300.9 39.249,301.242 C 38.733,301.68 38.384,302.386 38.203,303.361 L 37.554,306.859 L 34.888,306.364 L 38.92,284.632 L 41.586,285.127 L 40.969,288.453 C 40.756,289.6 40.798,290.442 41.093,290.982 C 41.389,291.521 41.909,291.86 42.655,291.998 L 75.109,298.019 C 75.912,298.168 76.544,298.063 77.006,297.704 C 77.468,297.345 77.785,296.706 77.955,295.789 L 78.657,292.004 L 81.324,292.499 z "
   id="path145"
   style="fill:#ffffff;fill-opacity:1" />
</g>
<g
   id="g147"
   style="fill:#ffffff;fill-opacity:1">
	<path
   d="M 75.978,318.833 L 75.319,332.201 L 44.639,354.075 L 64.705,355.063 C 66.686,355.161 68.301,354.674 69.55,353.608 C 70.8,352.541 71.544,350.971 71.783,348.901 L 74.49,349.034 L 73.715,364.762 L 71.008,364.628 C 70.883,362.423 70.305,360.817 69.274,359.814 C 68.244,358.809 66.67,358.255 64.553,358.151 L 30.945,356.496 L 31.111,353.129 L 66.401,328.259 L 42.865,327.1 C 40.169,326.967 38.175,327.487 36.882,328.659 C 35.59,329.831 34.9,331.33 34.81,333.155 L 34.774,333.884 L 32.066,333.75 L 32.922,316.363 L 35.63,316.496 L 35.571,317.69 C 35.487,319.399 36.094,320.869 37.395,322.101 C 38.695,323.332 40.411,324.001 42.544,324.106 L 70.349,325.475 C 72.133,324.259 73.076,322.641 73.176,320.622 L 73.271,318.7 L 75.978,318.833 z "
   id="path149"
   style="fill:#ffffff;fill-opacity:1" />
</g>
<g
   id="g151"
   style="fill:#ffffff;fill-opacity:1">
	<path
   d="M 74.208,369.165 L 78.365,406.638 L 62.183,409.402 L 61.891,406.765 C 65.301,405.759 67.927,404.658 69.768,403.455 C 71.61,402.253 72.871,400.974 73.553,399.618 C 74.233,398.261 74.49,396.829 74.323,395.322 C 74.226,394.452 73.977,393.835 73.574,393.468 C 73.172,393.102 72.632,392.956 71.956,393.031 L 38.801,396.708 C 38.163,396.779 37.664,397.035 37.302,397.476 C 36.94,397.917 36.79,398.418 36.852,398.979 L 37.392,403.848 L 34.697,404.147 L 32.154,381.222 L 34.849,380.923 L 35.364,385.561 C 35.441,386.255 35.7,386.785 36.141,387.147 C 36.582,387.508 37.131,387.653 37.788,387.581 L 70.769,383.923 C 71.541,383.837 72.088,383.566 72.41,383.11 C 72.731,382.653 72.842,381.982 72.743,381.092 C 72.197,376.165 67.315,373.332 58.099,372.595 L 57.816,370.044 L 74.208,369.165 z "
   id="path153"
   style="fill:#ffffff;fill-opacity:1" />
</g>
<g
   id="g155"
   style="fill:#ffffff;fill-opacity:1">
	<path
   d="M 79.082,410.964 L 88.933,447.205 L 74.607,451.976 L 73.934,449.5 C 77.208,447.985 79.482,446.586 80.756,445.304 C 82.028,444.021 82.848,442.57 83.214,440.95 C 83.579,439.33 83.451,437.375 82.829,435.087 L 81.284,429.402 C 81.044,428.52 80.698,427.93 80.244,427.631 C 79.789,427.332 79.253,427.266 78.634,427.435 L 64.199,431.358 L 64.727,433.299 C 65.333,435.531 66.442,437.089 68.052,437.971 C 69.661,438.853 71.912,439.021 74.807,438.477 L 75.495,441.008 L 56.136,446.271 L 55.448,443.739 C 58.61,442.698 60.679,441.38 61.656,439.786 C 62.633,438.19 62.781,436.145 62.104,433.651 L 61.668,432.047 L 46.276,436.231 C 45.601,436.415 45.176,436.742 45.002,437.212 C 44.752,437.925 44.78,438.843 45.086,439.969 L 46.447,444.978 C 47.38,448.411 49.24,450.916 52.027,452.497 C 54.813,454.076 58.491,454.527 63.061,453.849 L 63.749,456.382 L 47.739,460.069 L 37.468,422.279 L 40.085,421.568 L 41.102,425.31 C 41.331,426.154 41.722,426.739 42.273,427.062 C 42.824,427.384 43.466,427.447 44.198,427.249 L 76.219,418.545 C 76.894,418.361 77.331,418.006 77.531,417.479 C 77.731,416.952 77.674,416.115 77.364,414.972 L 76.469,411.679 L 79.082,410.964 z "
   id="path157"
   style="fill:#ffffff;fill-opacity:1" />
</g>
<g
   id="g159"
   style="fill:#ffffff;fill-opacity:1">
	<path
   d="M 91.672,455.71 L 101.059,476.17 C 102.582,479.491 103.397,482.396 103.501,484.883 C 103.605,487.369 103.155,489.463 102.151,491.164 C 101.147,492.865 99.745,494.129 97.943,494.956 C 95.065,496.276 92.143,496.055 89.176,494.294 C 86.917,492.957 84.647,490.341 82.369,486.445 C 82.972,488.646 83.159,490.467 82.93,491.909 C 82.701,493.349 82.054,494.826 80.99,496.34 C 79.594,498.331 77.723,500.293 75.381,502.226 C 73.87,503.455 72.971,504.339 72.684,504.877 C 72.396,505.415 72.35,505.897 72.544,506.32 C 73.079,507.486 74.945,507.474 78.143,506.286 L 79.213,508.618 C 75.846,509.949 73.155,510.296 71.141,509.659 C 69.127,509.021 67.58,507.527 66.502,505.179 C 65.732,503.5 65.459,501.994 65.682,500.663 C 65.905,499.33 66.557,498.096 67.64,496.957 C 68.253,496.291 69.835,495.03 72.385,493.176 C 75.371,491.014 77.31,489.413 78.202,488.373 C 79.094,487.333 79.623,486.272 79.79,485.19 C 79.956,484.108 79.76,482.959 79.201,481.74 L 77.876,478.85 L 63.432,485.477 C 62.796,485.769 62.395,486.178 62.23,486.703 C 62.031,487.435 62.094,488.155 62.418,488.862 L 64.047,492.413 L 61.582,493.545 L 52.475,473.694 L 54.94,472.563 L 56.351,475.637 C 56.716,476.432 57.199,476.938 57.8,477.154 C 58.401,477.37 59.074,477.307 59.816,476.967 L 89.366,463.408 C 90.178,463.036 90.69,462.576 90.9,462.031 C 91.109,461.485 91.056,460.868 90.74,460.178 L 89.208,456.839 L 91.672,455.71 z M 80.26,477.757 L 81.78,481.069 C 83.125,484.002 84.938,485.971 87.218,486.979 C 88.95,487.724 91.176,487.472 93.898,486.224 C 96.407,485.073 97.952,483.604 98.534,481.819 C 99.116,480.034 98.698,477.595 97.279,474.504 C 96.517,472.843 95.857,471.884 95.301,471.626 C 94.744,471.368 93.838,471.526 92.584,472.103 L 80.26,477.757 z "
   id="path161"
   style="fill:#ffffff;fill-opacity:1" />
</g>
<g
   id="g163"
   style="fill:#ffffff;fill-opacity:1">
	<path
   d="M 111.5,498.249 L 119.072,509.286 L 107.902,545.272 L 124.469,533.907 C 126.104,532.786 127.095,531.422 127.444,529.816 C 127.792,528.21 127.434,526.51 126.369,524.718 L 128.605,523.184 L 137.512,536.168 L 135.276,537.702 C 133.84,536.022 132.409,535.095 130.981,534.92 C 129.552,534.744 127.964,535.257 126.217,536.455 L 98.47,555.491 L 96.562,552.711 L 109.586,511.551 L 90.155,524.88 C 87.929,526.407 86.656,528.027 86.339,529.743 C 86.021,531.459 86.378,533.069 87.411,534.576 L 87.824,535.178 L 85.588,536.712 L 75.74,522.357 L 77.976,520.823 L 78.652,521.809 C 79.62,523.219 80.994,524.022 82.774,524.214 C 84.554,524.407 86.325,523.901 88.086,522.692 L 111.043,506.945 C 111.726,504.896 111.496,503.038 110.353,501.371 L 109.265,499.784 L 111.5,498.249 z "
   id="path165"
   style="fill:#ffffff;fill-opacity:1" />
</g>
<g
   id="g167"
   style="fill:#ffffff;fill-opacity:1">
	<path
   d="M 156.016,553.925 L 139.329,592.399 C 138.867,593.491 138.685,594.367 138.783,595.029 C 138.88,595.692 139.239,596.345 139.859,596.99 L 140.951,598.126 L 138.996,600.005 L 124.972,585.418 L 126.927,583.538 L 128.24,584.904 C 129.278,585.983 130.111,586.611 130.74,586.789 C 131.368,586.966 131.88,586.866 132.272,586.489 C 132.58,586.192 132.857,585.765 133.102,585.206 L 136.557,577.271 L 125.368,565.631 L 121.678,567.052 C 120.139,567.64 119.104,568.19 118.572,568.701 C 117.661,569.577 117.245,570.624 117.326,571.844 C 117.406,573.064 118.006,574.256 119.127,575.422 L 120.078,576.411 L 118.123,578.29 L 106.767,566.477 L 108.722,564.598 L 109.371,565.273 C 110.1,566.032 110.981,566.471 112.012,566.589 C 113.469,566.758 114.939,566.563 116.422,566.002 L 153.751,551.565 L 156.016,553.925 z M 144.896,558.111 L 128.259,564.517 L 137.79,574.431 L 144.896,558.111 z "
   id="path169"
   style="fill:#ffffff;fill-opacity:1" />
</g>
<g
   id="g171"
   style="fill:#ffffff;fill-opacity:1">
	<path
   d="M 170.147,573.386 L 171.792,571.23 L 189.389,584.653 L 187.744,586.809 L 184.777,584.545 C 183.926,583.897 183.207,583.605 182.62,583.67 C 182.033,583.735 181.461,584.131 180.908,584.858 L 161.455,610.361 C 160.665,611.396 160.323,612.181 160.43,612.715 C 160.536,613.249 161.192,613.975 162.398,614.895 L 167.336,618.662 C 169.174,620.064 171.556,620.501 174.481,619.968 C 177.405,619.436 180.754,617.578 184.528,614.393 L 186.614,615.985 L 175.799,628.529 L 145.637,605.522 L 147.282,603.366 L 150.296,605.665 C 150.96,606.172 151.592,606.385 152.192,606.305 C 152.791,606.224 153.327,605.874 153.798,605.256 L 173.799,579.034 C 174.282,578.401 174.459,577.808 174.33,577.258 C 174.2,576.707 173.71,576.107 172.859,575.458 L 170.147,573.386 z "
   id="path173"
   style="fill:#ffffff;fill-opacity:1" />
</g>
<g
   id="g175"
   style="fill:#ffffff;fill-opacity:1">
	<path
   d="M 227.973,609.739 L 248.648,618.642 C 252.004,620.087 254.554,621.699 256.297,623.475 C 258.04,625.25 259.109,627.107 259.503,629.042 C 259.897,630.978 259.702,632.856 258.918,634.676 C 257.666,637.584 255.348,639.378 251.965,640.058 C 249.392,640.579 245.955,640.157 241.653,638.789 C 243.576,640.021 244.935,641.248 245.73,642.472 C 246.524,643.695 247.034,645.224 247.258,647.061 C 247.555,649.474 247.48,652.184 247.035,655.188 C 246.737,657.113 246.66,658.371 246.808,658.963 C 246.955,659.556 247.243,659.944 247.671,660.129 C 248.849,660.636 250.228,659.378 251.805,656.353 L 254.161,657.368 C 252.552,660.612 250.787,662.673 248.865,663.548 C 246.943,664.425 244.794,664.351 242.42,663.328 C 240.724,662.598 239.512,661.664 238.785,660.525 C 238.058,659.387 237.716,658.033 237.757,656.463 C 237.767,655.557 238.096,653.562 238.748,650.476 C 239.517,646.871 239.884,644.383 239.85,643.014 C 239.815,641.645 239.498,640.502 238.897,639.587 C 238.296,638.673 237.38,637.95 236.147,637.419 L 233.229,636.162 L 226.943,650.758 C 226.666,651.401 226.642,651.973 226.871,652.473 C 227.214,653.151 227.743,653.643 228.457,653.951 L 232.046,655.496 L 230.973,657.987 L 210.914,649.349 L 211.987,646.858 L 215.094,648.196 C 215.897,648.542 216.594,648.593 217.186,648.351 C 217.777,648.108 218.235,647.612 218.558,646.862 L 231.417,617.001 C 231.771,616.18 231.842,615.497 231.633,614.951 C 231.424,614.406 230.97,613.983 230.274,613.683 L 226.9,612.23 L 227.973,609.739 z M 234.268,633.753 L 237.615,635.194 C 240.578,636.47 243.244,636.718 245.612,635.939 C 247.397,635.332 248.882,633.654 250.066,630.905 C 251.158,628.37 251.321,626.244 250.558,624.528 C 249.793,622.813 247.849,621.283 244.725,619.937 C 243.047,619.214 241.914,618.944 241.328,619.125 C 240.743,619.308 240.176,620.032 239.631,621.3 L 234.268,633.753 z "
   id="path177"
   style="fill:#ffffff;fill-opacity:1" />
</g>
<g
   id="g179"
   style="fill:#ffffff;fill-opacity:1">
	<path
   d="M 271.27,627.884 L 307.735,636.87 L 304.949,651.71 L 302.458,651.096 C 302.723,647.498 302.605,644.831 302.103,643.096 C 301.599,641.361 300.728,639.939 299.489,638.832 C 298.25,637.727 296.479,636.89 294.177,636.322 L 288.458,634.913 C 287.57,634.694 286.886,634.711 286.404,634.962 C 285.922,635.214 285.604,635.651 285.45,636.274 L 281.871,650.798 L 283.824,651.279 C 286.07,651.833 287.969,651.62 289.522,650.64 C 291.074,649.661 292.315,647.775 293.244,644.981 L 295.792,645.609 L 290.992,665.088 L 288.444,664.46 C 289.069,661.191 288.922,658.742 288.002,657.113 C 287.082,655.485 285.366,654.361 282.856,653.743 L 281.242,653.346 L 277.426,668.832 C 277.259,669.512 277.338,670.042 277.664,670.423 C 278.166,670.987 278.982,671.408 280.116,671.688 L 285.156,672.93 C 288.609,673.781 291.703,673.371 294.437,671.703 C 297.17,670.034 299.351,667.038 300.977,662.714 L 303.525,663.342 L 298.975,679.128 L 260.952,669.758 L 261.601,667.125 L 265.366,668.053 C 266.216,668.262 266.916,668.204 267.467,667.88 C 268.017,667.555 268.383,667.025 268.564,666.288 L 276.504,634.068 C 276.671,633.389 276.573,632.835 276.209,632.404 C 275.844,631.974 275.085,631.617 273.935,631.333 L 270.623,630.518 L 271.27,627.884 z "
   id="path181"
   style="fill:#ffffff;fill-opacity:1" />
</g>
<g
   id="g183"
   style="fill:#ffffff;fill-opacity:1">
	<path
   d="M 312.469,638.154 L 333.508,639.905 L 333.283,642.607 L 330.989,642.416 C 329.419,642.285 328.365,642.354 327.826,642.621 C 327.286,642.889 326.996,643.273 326.954,643.777 C 326.915,644.242 327.068,645.035 327.411,646.156 L 336.029,673.091 L 346.716,651.597 C 347.429,650.154 347.839,648.793 347.945,647.515 C 348.045,646.314 347.762,645.373 347.097,644.694 C 346.431,644.014 345.373,643.614 343.92,643.493 L 341.973,643.331 L 342.198,640.629 L 358.821,642.013 L 358.596,644.715 L 357.346,644.611 C 356.28,644.522 355.296,644.811 354.392,645.477 C 353.488,646.143 352.568,647.393 351.636,649.226 L 334,684.158 L 330.533,683.869 L 317.962,644.58 C 317.547,643.238 317.019,642.326 316.376,641.844 C 315.733,641.362 314.657,641.057 313.146,640.931 L 312.245,640.857 L 312.469,638.154 z "
   id="path185"
   style="fill:#ffffff;fill-opacity:1" />
</g>
<g
   id="g187"
   style="fill:#ffffff;fill-opacity:1">
	<path
   d="M 360.488,641.832 L 397.945,639.083 L 399.892,654.057 L 397.333,654.245 C 396.472,650.741 395.533,648.242 394.517,646.748 C 393.501,645.253 392.232,644.172 390.712,643.503 C 389.191,642.836 387.249,642.589 384.883,642.763 L 379.008,643.194 C 378.096,643.261 377.451,643.488 377.07,643.878 C 376.689,644.266 376.522,644.78 376.569,645.42 L 377.664,660.339 L 379.67,660.192 C 381.977,660.022 383.717,659.233 384.89,657.821 C 386.063,656.409 386.659,654.231 386.677,651.286 L 389.294,651.095 L 390.762,671.104 L 388.145,671.295 C 387.727,667.992 386.828,665.709 385.449,664.446 C 384.07,663.182 382.091,662.645 379.512,662.835 L 377.854,662.957 L 379.021,678.864 C 379.072,679.562 379.313,680.042 379.741,680.302 C 380.392,680.683 381.3,680.83 382.464,680.745 L 387.64,680.365 C 391.187,680.104 394.003,678.758 396.086,676.324 C 398.168,673.891 399.313,670.366 399.52,665.751 L 402.138,665.56 L 402.7,681.98 L 363.644,684.846 L 363.445,682.141 L 367.313,681.857 C 368.185,681.794 368.833,681.522 369.255,681.043 C 369.678,680.564 369.862,679.945 369.807,679.189 L 367.378,646.094 C 367.327,645.397 367.061,644.9 366.581,644.604 C 366.101,644.307 365.27,644.204 364.087,644.29 L 360.685,644.54 L 360.488,641.832 z "
   id="path189"
   style="fill:#ffffff;fill-opacity:1" />
</g>
<g
   id="g191"
   style="fill:#ffffff;fill-opacity:1">
	<path
   d="M 405.484,638.387 L 418.488,635.223 L 448.173,658.431 L 443.423,638.91 C 442.954,636.983 442.03,635.572 440.652,634.678 C 439.274,633.782 437.558,633.515 435.505,633.874 L 434.864,631.238 L 450.163,627.515 L 450.805,630.151 C 448.726,630.896 447.351,631.907 446.681,633.179 C 446.01,634.453 445.925,636.119 446.426,638.178 L 454.383,670.873 L 451.107,671.671 L 417.241,644.896 L 422.812,667.792 C 423.45,670.414 424.515,672.179 426.006,673.086 C 427.497,673.992 429.13,674.229 430.906,673.797 L 431.614,673.624 L 432.256,676.259 L 415.341,680.375 L 414.699,677.74 L 415.861,677.457 C 417.523,677.053 418.76,676.053 419.572,674.457 C 420.384,672.86 420.538,671.024 420.032,668.949 L 413.45,641.9 C 411.777,640.535 409.958,640.09 407.994,640.568 L 406.124,641.023 L 405.484,638.387 z "
   id="path193"
   style="fill:#ffffff;fill-opacity:1" />
</g>
<g
   id="g195"
   style="fill:#ffffff;fill-opacity:1">
	<path
   d="M 452.963,626.545 L 472.836,617.846 L 473.924,620.33 L 469.891,622.096 C 469.321,622.345 468.959,622.732 468.806,623.254 C 468.654,623.777 468.748,624.431 469.091,625.214 L 478.655,647.065 C 480.004,650.146 481.857,652.152 484.217,653.081 C 486.576,654.013 489.199,653.845 492.084,652.582 C 494.203,651.654 495.927,650.359 497.257,648.695 C 498.226,647.465 498.776,645.897 498.907,643.993 C 499.039,642.09 498.592,639.963 497.562,637.611 L 490.219,620.837 C 489.283,618.699 488.105,617.305 486.685,616.654 C 485.265,616.003 483.753,616.028 482.151,616.729 L 481.563,616.986 L 480.475,614.502 L 495.54,607.908 L 496.628,610.392 L 495.586,610.848 C 494.02,611.534 493.085,612.648 492.784,614.19 C 492.483,615.733 492.715,617.378 493.478,619.123 L 501.441,637.314 C 503.211,641.357 503.28,645.198 501.649,648.84 C 500.007,652.508 496.809,655.383 492.055,657.464 C 488.654,658.953 485.449,659.692 482.442,659.683 C 479.435,659.673 477.017,659.022 475.19,657.732 C 473.364,656.443 471.818,654.354 470.555,651.469 L 460.838,629.271 C 460.387,628.239 459.88,627.617 459.321,627.406 C 458.761,627.194 457.974,627.311 456.959,627.756 L 454.048,629.03 L 452.963,626.545 z "
   id="path197"
   style="fill:#ffffff;fill-opacity:1" />
</g>
<g
   id="g199"
   style="fill:#ffffff;fill-opacity:1">
	<path
   d="M 498.237,606.171 L 529.687,585.644 L 538.634,597.805 L 536.486,599.208 C 534.037,596.558 532.007,594.824 530.394,594.008 C 528.781,593.192 527.149,592.86 525.495,593.01 C 523.841,593.161 522.02,593.885 520.035,595.181 L 515.102,598.401 C 514.336,598.901 513.881,599.412 513.736,599.936 C 513.591,600.46 513.694,600.992 514.045,601.529 L 522.221,614.055 L 523.906,612.955 C 525.844,611.69 526.984,610.157 527.328,608.353 C 527.672,606.551 527.139,604.356 525.73,601.771 L 527.927,600.336 L 538.892,617.136 L 536.695,618.571 C 534.731,615.883 532.841,614.32 531.022,613.882 C 529.205,613.444 527.212,613.932 525.048,615.344 L 523.655,616.253 L 532.373,629.608 C 532.756,630.195 533.197,630.498 533.698,630.519 C 534.453,630.538 535.319,630.227 536.296,629.589 L 540.643,626.752 C 543.622,624.808 545.433,622.268 546.079,619.131 C 546.725,615.994 546.021,612.357 543.97,608.217 L 546.168,606.782 L 554.603,620.88 L 521.81,642.284 L 520.328,640.013 L 523.576,637.893 C 524.308,637.414 524.744,636.865 524.882,636.24 C 525.02,635.617 524.882,634.987 524.468,634.352 L 506.331,606.564 C 505.948,605.978 505.476,605.671 504.912,605.644 C 504.349,605.618 503.571,605.928 502.578,606.576 L 499.722,608.441 L 498.237,606.171 z "
   id="path201"
   style="fill:#ffffff;fill-opacity:1" />
</g>
<g
   id="g203"
   style="fill:#ffffff;fill-opacity:1">
	<path
   d="M 575.644,547.653 L 574.722,543.035 L 576.149,541.535 L 587.128,551.61 L 585.32,553.512 C 581.283,551.552 577.63,550.747 574.359,551.098 C 571.088,551.45 568.408,552.723 566.319,554.921 C 564.537,556.795 563.598,558.805 563.5,560.951 C 563.402,563.097 564.063,564.846 565.484,566.197 C 566.329,567 567.323,567.504 568.468,567.708 C 569.613,567.912 570.926,567.735 572.41,567.176 C 573.891,566.615 576.132,565.295 579.126,563.214 C 582.636,560.789 585.193,559.239 586.801,558.564 C 589.363,557.505 591.752,557.156 593.971,557.517 C 596.188,557.878 598.262,558.976 600.192,560.811 C 603.08,563.555 604.439,566.739 604.268,570.358 C 604.061,574.722 602.279,578.672 598.916,582.209 C 595.822,585.464 591.862,587.358 587.036,587.894 L 587.77,593.299 L 586.283,594.862 L 574.702,583.853 L 576.471,581.993 C 584.83,586.431 591.693,585.829 597.058,580.185 C 599.251,577.877 600.426,575.578 600.581,573.287 C 600.735,570.996 600.018,569.094 598.426,567.582 C 597.315,566.524 596.113,565.92 594.825,565.766 C 593.537,565.613 592.099,565.907 590.511,566.647 C 589.642,567.053 587.716,568.276 584.733,570.314 C 580.695,573.039 577.573,574.752 575.365,575.455 C 573.156,576.157 571.136,576.294 569.303,575.866 C 567.473,575.438 565.712,574.422 564.023,572.815 C 561.178,570.111 559.766,566.953 559.787,563.336 C 559.807,559.721 561.343,556.307 564.396,553.094 C 567.329,550.009 571.078,548.195 575.644,547.653 z "
   id="path205"
   style="fill:#ffffff;fill-opacity:1" />
</g>
<g
   id="g207"
   style="fill:#ffffff;fill-opacity:1">
	<path
   d="M 581.695,536.294 L 603.266,505.55 L 616.092,513.516 L 614.618,515.617 C 611.359,514.068 608.831,513.214 607.03,513.055 C 605.23,512.896 603.591,513.194 602.111,513.949 C 600.631,514.705 599.211,516.053 597.849,517.994 L 594.465,522.815 C 593.941,523.563 593.707,524.208 593.768,524.748 C 593.829,525.29 594.121,525.744 594.646,526.112 L 606.89,534.703 L 608.045,533.057 C 609.374,531.163 609.863,529.317 609.512,527.515 C 609.161,525.713 607.852,523.873 605.584,521.996 L 607.091,519.848 L 623.513,531.37 L 622.006,533.518 C 619.185,531.752 616.848,531.003 614.996,531.272 C 613.146,531.542 611.478,532.734 609.993,534.85 L 609.039,536.21 L 622.095,545.371 C 622.668,545.773 623.192,545.891 623.664,545.724 C 624.371,545.461 625.06,544.851 625.73,543.897 L 628.711,539.648 C 630.754,536.736 631.492,533.705 630.925,530.552 C 630.359,527.4 628.355,524.283 624.91,521.201 L 626.417,519.054 L 639.488,529.008 L 616.996,561.065 L 614.776,559.507 L 617.004,556.332 C 617.506,555.616 617.706,554.943 617.602,554.312 C 617.498,553.681 617.136,553.148 616.516,552.712 L 589.353,533.653 C 588.78,533.251 588.226,533.142 587.694,533.326 C 587.161,533.511 586.554,534.089 585.874,535.058 L 583.914,537.851 L 581.695,536.294 z "
   id="path209"
   style="fill:#ffffff;fill-opacity:1" />
</g>
<g
   id="g211"
   style="fill:#ffffff;fill-opacity:1">
	<path
   d="M 608.079,497.959 L 617.83,477.67 C 619.413,474.376 621.129,471.896 622.976,470.227 C 624.823,468.559 626.721,467.569 628.671,467.255 C 630.621,466.941 632.49,467.214 634.276,468.072 C 637.13,469.443 638.826,471.833 639.365,475.241 C 639.778,477.834 639.215,481.251 637.672,485.491 C 638.982,483.622 640.264,482.314 641.519,481.572 C 642.774,480.828 644.323,480.382 646.167,480.234 C 648.591,480.038 651.295,480.224 654.277,480.793 C 656.188,481.171 657.443,481.299 658.041,481.176 C 658.64,481.054 659.038,480.782 659.24,480.362 C 659.796,479.206 658.596,477.777 655.639,476.076 L 656.75,473.763 C 659.925,475.505 661.91,477.355 662.706,479.311 C 663.501,481.268 663.339,483.412 662.219,485.742 C 661.419,487.407 660.437,488.579 659.269,489.258 C 658.101,489.937 656.735,490.223 655.167,490.117 C 654.263,490.07 652.281,489.658 649.226,488.88 C 645.657,487.962 643.186,487.492 641.817,487.47 C 640.448,487.449 639.293,487.718 638.354,488.281 C 637.415,488.843 636.655,489.729 636.074,490.938 L 634.697,493.802 L 649.019,500.686 C 649.651,500.99 650.222,501.038 650.731,500.83 C 651.421,500.515 651.936,500.007 652.273,499.306 L 653.965,495.785 L 656.409,496.96 L 646.948,516.645 L 644.504,515.47 L 645.969,512.421 C 646.348,511.633 646.428,510.939 646.21,510.337 C 645.992,509.736 645.515,509.259 644.779,508.905 L 615.475,494.821 C 614.669,494.434 613.99,494.334 613.437,494.521 C 612.883,494.708 612.442,495.142 612.114,495.826 L 610.522,499.138 L 608.079,497.959 z M 632.332,492.663 L 633.911,489.378 C 635.309,486.47 635.667,483.816 634.986,481.419 C 634.455,479.61 632.839,478.058 630.139,476.76 C 627.652,475.565 625.535,475.314 623.79,476.006 C 622.045,476.698 620.435,478.577 618.961,481.644 C 618.17,483.29 617.853,484.411 618.01,485.003 C 618.166,485.597 618.866,486.191 620.111,486.79 L 632.332,492.663 z "
   id="path213"
   style="fill:#ffffff;fill-opacity:1" />
</g>
<g
   id="g215"
   style="fill:#ffffff;fill-opacity:1">
	<path
   d="M 627.235,458.101 L 633.132,437.83 L 635.736,438.588 L 635.092,440.8 C 634.653,442.312 634.51,443.359 634.664,443.94 C 634.819,444.521 635.139,444.883 635.624,445.024 C 636.071,445.155 636.88,445.164 638.046,445.049 L 666.156,441.958 L 647.214,427.212 C 645.943,426.226 644.691,425.554 643.458,425.195 C 642.302,424.858 641.324,424.949 640.525,425.465 C 639.728,425.983 639.124,426.941 638.716,428.34 L 638.17,430.216 L 635.566,429.458 L 640.226,413.444 L 642.83,414.201 L 642.479,415.405 C 642.18,416.432 642.268,417.454 642.741,418.472 C 643.215,419.491 644.257,420.639 645.868,421.917 L 676.597,446.142 L 675.624,449.484 L 634.621,453.994 C 633.225,454.135 632.225,454.472 631.625,455.006 C 631.025,455.54 630.512,456.534 630.088,457.99 L 629.836,458.857 L 627.235,458.101 z "
   id="path217"
   style="fill:#ffffff;fill-opacity:1" />
</g>
<g
   id="g219"
   style="fill:#ffffff;fill-opacity:1">
	<path
   d="M 639.931,411.305 L 643.352,389.468 L 646.031,389.888 L 645.413,393.835 C 645.28,394.68 645.352,395.321 645.628,395.757 C 645.905,396.195 646.369,396.464 647.023,396.566 L 680.007,401.733 C 680.776,401.854 681.354,401.738 681.743,401.385 C 682.247,400.933 682.575,400.217 682.728,399.238 L 683.279,395.723 L 685.959,396.143 L 682.538,417.979 L 679.858,417.559 L 680.381,414.217 C 680.562,413.065 680.497,412.224 680.187,411.693 C 679.876,411.163 679.347,410.839 678.598,410.721 L 645.988,405.613 C 645.181,405.487 644.551,405.61 644.1,405.981 C 643.649,406.353 643.35,407 643.205,407.921 L 642.609,411.724 L 639.931,411.305 z "
   id="path221"
   style="fill:#ffffff;fill-opacity:1" />
</g>
<g
   id="g223"
   style="fill:#ffffff;fill-opacity:1">
	<path
   d="M 648.604,350.087 L 644.374,347.959 L 644.432,345.803 L 661.738,345.541 L 661.665,348.223 C 656.668,348.924 652.935,350.399 650.461,352.646 C 647.988,354.893 646.713,357.503 646.633,360.476 C 646.544,363.741 648.025,366.485 651.073,368.706 C 654.123,370.928 658.997,372.129 665.696,372.31 C 672.784,372.502 678.078,371.468 681.578,369.21 C 684.328,367.398 685.752,364.655 685.851,360.982 C 685.951,357.31 684.685,354.183 682.051,351.604 C 680.137,349.743 677.276,348.402 673.467,347.58 L 673.538,344.956 C 678.436,345.712 682.272,347.691 685.045,350.897 C 687.816,354.103 689.142,357.99 689.018,362.556 C 688.858,368.463 686.641,373.357 682.368,377.238 C 678.095,381.119 672.706,382.97 666.199,382.795 C 658.975,382.6 653.269,380.142 649.083,375.419 C 645.52,371.395 643.809,366.749 643.951,361.482 C 644.008,359.403 644.385,357.483 645.083,355.722 C 645.782,353.963 646.956,352.084 648.604,350.087 z "
   id="path225"
   style="fill:#ffffff;fill-opacity:1" />
</g>
<polyline
   points="92.328,205.445 96.242,190.047 82.82,181.57 98.656,180.539 102.578,165.156 108.453,179.906   124.289,178.867 112.086,189.023 117.961,203.758 104.531,195.281 92.328,205.445 "
   id="polyline227"
   style="fill:#ffffff;fill-opacity:1" />
<polyline
   points="599.742,203.133 603.648,187.75 590.227,179.281 606.062,178.234 609.992,162.859 615.859,177.609   631.711,176.57 619.5,186.719 625.375,201.477 611.945,192.984 599.742,203.133 "
   id="polyline229"
   style="fill:#ffffff;fill-opacity:1" />
<g
   id="g231"
   style="fill:#ffffff;fill-opacity:1">
	<path
   d="M 645.32,338.531 L 640.414,301.296 L 655.249,298.488 L 655.584,301.031 C 652.137,302.093 649.696,303.175 648.262,304.275 C 646.829,305.376 645.823,306.704 645.243,308.261 C 644.664,309.818 644.529,311.772 644.839,314.122 L 645.609,319.963 C 645.729,320.869 645.993,321.5 646.403,321.858 C 646.813,322.216 647.336,322.353 647.971,322.269 L 662.802,320.315 L 662.539,318.32 C 662.236,316.027 661.347,314.336 659.871,313.246 C 658.393,312.156 656.184,311.687 653.244,311.84 L 652.901,309.238 L 672.791,306.617 L 673.134,309.219 C 669.861,309.826 667.634,310.856 666.452,312.305 C 665.27,313.755 664.848,315.762 665.186,318.325 L 665.403,319.973 L 681.216,317.889 C 681.91,317.797 682.375,317.531 682.611,317.087 C 682.954,316.414 683.049,315.501 682.896,314.344 L 682.218,309.198 C 681.753,305.671 680.246,302.94 677.697,301 C 675.147,299.062 671.563,298.122 666.944,298.182 L 666.601,295.579 L 682.96,294.071 L 688.076,332.897 L 685.387,333.251 L 684.881,329.406 C 684.767,328.539 684.458,327.908 683.955,327.513 C 683.452,327.119 682.825,326.971 682.073,327.071 L 649.174,331.406 C 648.481,331.497 648,331.791 647.732,332.287 C 647.464,332.783 647.408,333.62 647.562,334.794 L 648.008,338.177 L 645.32,338.531 z "
   id="path233"
   style="fill:#ffffff;fill-opacity:1" />
</g>

<line
   x1="537.84399"
   y1="266.68799"
   x2="546.992"
   y2="426.84399"
   id="line237"
   style="fill:none;stroke:#efce5a;stroke-width:3.3059001;stroke-opacity:1" />
</svg>